<svg id="visual" viewBox="0 0 900 600" width="900" height="600" xmlns="http://www.w3.org/2000/svg" xmlns:xlink="http://www.w3.org/1999/xlink" version="1.1"><g transform="translate(472.3304283516902 317.5684946783606)"><path d="M189.5 -242C232.8 -189.4 246.4 -117.6 259.7 -45.3C272.9 26.9 285.8 99.7 258.1 150.3C230.4 200.8 162.1 229.2 93.5 252.1C24.9 275 -44 292.6 -102.8 274.6C-161.6 256.6 -210.2 203 -253 140.5C-295.7 78 -332.5 6.4 -314.5 -48.4C-296.4 -103.3 -223.5 -141.4 -162 -190.7C-100.4 -240 -50.2 -300.5 11.4 -314.1C73.1 -327.7 146.1 -294.5 189.5 -242" fill="#000"></path></g></svg>