<?xml version="1.0" encoding="UTF-8"?>
<!DOCTYPE svg PUBLIC "-//W3C//DTD SVG 1.1//EN" "http://www.w3.org/Graphics/SVG/1.1/DTD/svg11.dtd">
<svg xmlns="http://www.w3.org/2000/svg" version="1.1" width="500px" height="500px" style="shape-rendering:geometricPrecision; text-rendering:geometricPrecision; image-rendering:optimizeQuality; fill-rule:evenodd; clip-rule:evenodd" xmlns:xlink="http://www.w3.org/1999/xlink">
<g><path style="opacity:0.994" fill="#fdfdfd" d="M 247.5,120.5 C 307.551,122.088 350.718,149.754 377,203.5C 396.22,257.251 386.887,305.251 349,347.5C 313.259,382.4 270.759,394.9 221.5,385C 204.462,380.979 188.796,373.979 174.5,364C 169.028,359.912 167.528,354.745 170,348.5C 199.829,320.994 231.662,296.16 265.5,274C 269.738,273.177 273.738,273.844 277.5,276C 296.024,293.102 314.358,310.435 332.5,328C 334.471,327.066 336.304,325.566 338,323.5C 338.667,322.833 338.667,322.167 338,321.5C 317.167,301.333 296.333,281.167 275.5,261C 272.278,258.112 268.778,255.612 265,253.5C 249.639,262.856 234.805,273.022 220.5,284C 198.541,301.623 176.875,319.623 155.5,338C 152.5,338.667 149.5,338.667 146.5,338C 142.277,334.444 138.777,330.277 136,325.5C 107.78,276.159 108.78,227.493 139,179.5C 166.027,143.233 202.193,123.567 247.5,120.5 Z M 238.5,145.5 C 294.735,142.94 334.235,167.273 357,218.5C 362.587,233.022 364.587,248.022 363,263.5C 344.167,246 325.333,228.5 306.5,211C 302.65,207.973 298.316,206.973 293.5,208C 275.045,217.058 257.378,227.392 240.5,239C 210.516,260.31 181.683,283.144 154,307.5C 150.973,302.779 148.473,297.779 146.5,292.5C 187.032,255.141 231.365,222.974 279.5,196C 287.432,188.591 287.432,181.258 279.5,174C 277.5,173.5 275.5,173 273.5,172.5C 268.941,173.779 264.608,175.612 260.5,178C 239.153,190.336 218.486,203.67 198.5,218C 178.424,232.739 158.924,248.239 140,264.5C 138.392,217.875 157.558,182.709 197.5,159C 210.587,152.359 224.254,147.859 238.5,145.5 Z M 294.5,235.5 C 298.199,237.019 301.532,239.186 304.5,242C 321.333,258.167 338.167,274.333 355,290.5C 355.425,294.228 354.425,297.562 352,300.5C 330.78,279.945 309.613,259.445 288.5,239C 290.727,238.059 292.727,236.892 294.5,235.5 Z M 250.5,313.5 C 251.922,313.709 253.255,314.209 254.5,315C 268.526,328.361 282.526,341.694 296.5,355C 276.912,363.043 256.579,365.71 235.5,363C 223.796,361.321 212.796,357.654 202.5,352C 218.688,339.303 234.688,326.469 250.5,313.5 Z"/></g>
</svg>
